<?xml version="1.0" encoding="UTF-8" standalone="no"?> <svg id="Layer_x0020_1" xmlns="http://www.w3.org/2000/svg" width="900" height="900" viewBox="0 0 900 900">
  <circle id="Ellipse_9" cx="450" cy="450" r="450" fill="#333"/>
  <g id="_383990656">
    <g id="Group_126">
      <path id="_383992120" d="M555.113,696.037H344.891a83.043,83.043,0,0,1-82.951-82.95V469.035a83.043,83.043,0,0,1,82.951-82.95h57.663a8,8,0,0,1,7.775,6.111,29.8,29.8,0,0,0,28.649,22.57h22.416a8,8,0,0,1,8,8l-.013,42.035,59.251-48.243a8,8,0,0,1,5.05-1.8h80.291a8.006,8.006,0,0,1,6.283,3.041,81.948,81.948,0,0,1,17.807,51.222V613.077a83.045,83.045,0,0,1-82.951,82.959ZM344.891,402.089a67.027,67.027,0,0,0-66.952,66.951V613.087a67.027,67.027,0,0,0,66.952,66.951H555.113a67.03,67.03,0,0,0,66.952-66.951V469.035a66,66,0,0,0-12.1-38.269H536.527l-70.105,57.08a8,8,0,0,1-13.05-6.209l.018-50.868H438.978a45.359,45.359,0,0,1-42.256-28.682h-51.83Z" fill="#eef1f2" fill-rule="evenodd"/>
    </g>
    <g id="Group_127">
      <path id="_383991952" d="M269.94,615.233H239.488a45.525,45.525,0,0,1-45.476-45.476V512.371a45.526,45.526,0,0,1,45.476-45.477H269.94a8,8,0,0,1,8,8V607.237a8,8,0,0,1-8,8Zm-30.449-132.34a29.512,29.512,0,0,0-29.477,29.478v57.384a29.512,29.512,0,0,0,29.477,29.478h22.454V482.893H239.491Z" fill="#eef1f2" fill-rule="evenodd"/>
    </g>
    <g id="Group_128">
      <path id="_383991784" d="M660.514,615.233H630.06a8,8,0,0,1-8-8V474.893a8,8,0,0,1,8-8h30.453a45.526,45.526,0,0,1,45.476,45.477v57.384a45.526,45.526,0,0,1-45.476,45.478Zm-22.449-16h22.453a29.512,29.512,0,0,0,29.477-29.477V512.371a29.512,29.512,0,0,0-29.477-29.478H638.065V599.234Z" fill="#eef1f2" fill-rule="evenodd"/>
    </g>
    <g id="Group_133">
      <g id="Group_131">
        <g id="Group_129">
          <path id="_383991712" d="M375.052,537.012a8,8,0,0,1-8-8V491.69a8,8,0,0,1,16,0v37.323A8,8,0,0,1,375.052,537.012Z" fill="#eef1f2" fill-rule="evenodd"/>
        </g>
        <g id="Group_130">
          <path id="_383990944" d="M524.953,536.781a8,8,0,0,1-8-8V491.917a8,8,0,0,1,16,0v36.869a7.994,7.994,0,0,1-8,7.995Z" fill="#eef1f2" fill-rule="evenodd"/>
        </g>
      </g>
      <g id="Group_132">
        <path id="_383991544" d="M489.234,598.434H410.771a8,8,0,0,1,0-16h78.463a8,8,0,0,1,0,16Z" fill="#eef1f2" fill-rule="evenodd"/>
      </g>
    </g>
    <g id="Group_134">
      <path id="_383991496" d="M461.372,489.641a8,8,0,0,1-8-8l.018-50.868H438.978A45.525,45.525,0,0,1,393.5,385.294V249.441a45.525,45.525,0,0,1,45.474-45.476l214.319,0A45.523,45.523,0,0,1,698.77,249.44V385.292A45.525,45.525,0,0,1,653.3,430.769H536.527l-70.105,57.076a7.976,7.976,0,0,1-5.05,1.8ZM438.978,219.962A29.51,29.51,0,0,0,409.5,249.44V385.292a29.509,29.509,0,0,0,29.474,29.478h22.416a8.013,8.013,0,0,1,8,8l-.013,42.035,59.251-48.243a8,8,0,0,1,5.05-1.8H653.3a29.511,29.511,0,0,0,29.473-29.477V249.441A29.511,29.511,0,0,0,653.3,219.965l-214.319,0Z" fill="#eef1f2" fill-rule="evenodd"/>
    </g>
    <g id="Group_135">
      <path id="_383991448" d="M469.427,346.448A29.077,29.077,0,1,1,498.5,317.372,29.108,29.108,0,0,1,469.427,346.448Zm0-42.159a13.08,13.08,0,1,0,13.083,13.083A13.1,13.1,0,0,0,469.427,304.289Z" fill="#eef1f2" fill-rule="evenodd"/>
    </g>
    <g id="Group_136">
      <path id="_383991208" d="M546.135,346.448a29.077,29.077,0,1,1,29.078-29.076A29.108,29.108,0,0,1,546.135,346.448Zm0-42.159a13.08,13.08,0,1,0,13.083,13.083A13.1,13.1,0,0,0,546.135,304.289Z" fill="#eef1f2" fill-rule="evenodd"/>
    </g>
    <g id="Group_137">
      <path id="_383991280" d="M622.845,346.448a29.077,29.077,0,1,1,29.078-29.076A29.108,29.108,0,0,1,622.845,346.448Zm0-42.159a13.08,13.08,0,1,0,13.083,13.083A13.1,13.1,0,0,0,622.845,304.289Z" fill="#eef1f2" fill-rule="evenodd"/>
    </g>
    <g id="Group_138">
      <path id="_383991400" d="M239.491,482.893a8,8,0,0,1-8-8V368.5a8,8,0,0,1,16,0V474.893A8,8,0,0,1,239.491,482.893Z" fill="#eef1f2" fill-rule="evenodd"/>
    </g>
    <g id="Group_139">
      <path id="_383990296" d="M239.491,376.5a41.231,41.231,0,1,1,41.231-41.231A41.276,41.276,0,0,1,239.491,376.5Zm0-66.458a25.232,25.232,0,1,0,25.232,25.232A25.263,25.263,0,0,0,239.491,310.04Z" fill="#eef1f2" fill-rule="evenodd"/>
    </g>
  </g>
</svg>
